<svg width="9" height="11" viewBox="0 0 9 11" fill="none" xmlns="http://www.w3.org/2000/svg">
<path id="Vector" fill-rule="evenodd" clip-rule="evenodd" d="M8.81161 5.33463C8.93224 5.45519 9 5.61867 9 5.78914C9 5.9596 8.93224 6.12309 8.81161 6.24365L4.95102 10.1008C4.83036 10.2214 4.66673 10.2891 4.49612 10.2891C4.3255 10.2891 4.16187 10.2214 4.04121 10.1008L0.180619 6.24365C0.0634126 6.1224 -0.00144168 5.96001 2.43234e-05 5.79145C0.00149033 5.6229 0.0691594 5.46166 0.188457 5.34246C0.307754 5.22327 0.469135 5.15566 0.637841 5.1542C0.806546 5.15273 0.969079 5.21753 1.09043 5.33463L3.85268 8.09446L3.85268 0.646214C3.85268 0.475715 3.92047 0.312199 4.04114 0.191638C4.16181 0.0710773 4.32547 0.0033474 4.49612 0.0033474C4.66676 0.0033474 4.83042 0.0710773 4.95109 0.191638C5.07176 0.312199 5.13955 0.475715 5.13955 0.646214L5.13955 8.09446L7.9018 5.33463C8.02246 5.21411 8.18609 5.14641 8.35671 5.14641C8.52732 5.14641 8.69095 5.21411 8.81161 5.33463Z" fill="#FF3B6B"/>
</svg>
