<svg width="33" height="32" viewBox="0 0 33 32" fill="none" xmlns="http://www.w3.org/2000/svg">
<g id="Icon">
<g id="Sense icon">
<path id="Vector" d="M32.3968 16.4376C32.6274 16.7859 32.5783 17.0607 32.2447 17.2815C31.9339 17.4876 31.6739 17.3502 31.2241 17.1098C29.5885 16.2347 23.3504 12.9014 16.5693 17.3993C13.7119 19.2949 10.956 19.5484 8.53533 18.9972C4.82257 18.1516 1.93086 15.3941 0.70418 13.837C0.565155 13.6603 0.489922 13.2236 0.57497 12.9145C0.609318 12.7869 0.668198 12.6626 0.753246 12.558C0.874279 12.4108 1.0362 12.3094 1.24392 12.2816C1.49089 12.2488 1.76894 12.3323 2.06171 12.6087L2.19746 12.7362C3.78888 14.241 8.20822 18.4199 14.4823 14.2573C18.8984 11.3264 23.2604 11.6944 26.5692 12.8736C29.8731 14.0512 32.176 16.1104 32.3935 16.4376L32.3968 16.4376ZM15.9314 16.4326C20.0482 13.7012 23.967 13.6244 26.9274 14.2524C26.6886 14.1543 26.4416 14.0578 26.1865 13.9678C23.1541 12.8867 19.1617 12.5465 15.1283 15.2223C11.0885 17.903 7.74698 17.5187 5.30179 16.3869C6.3322 17.0296 7.50982 17.5759 8.79048 17.8687C10.9315 18.3561 13.3799 18.1271 15.9314 16.4326Z" fill="white"/>
<path id="Vector 58" d="M15.8672 14.0003C11.6196 18.4344 6.53276 15.8444 5.04688 15.3491C5.04688 18.3183 10.9904 18.3183 12.4763 18.3183C13.9622 18.3183 20.5339 13.0471 28.8211 15.3325C25.8493 12.371 21.2005 11.9982 15.8672 14.0003Z" fill="white"/>
</g>
</g>
</svg>
