<svg width="9" height="11" viewBox="0 0 9 11" fill="none" xmlns="http://www.w3.org/2000/svg">
<path id="Vector" fill-rule="evenodd" clip-rule="evenodd" d="M8.81161 4.95443C8.93224 4.83387 9 4.67039 9 4.49992C9 4.32946 8.93224 4.16597 8.81161 4.04542L4.95102 0.188222C4.83036 0.0677036 4.66673 0 4.49612 0C4.3255 0 4.16187 0.0677036 4.04121 0.188222L0.180619 4.04542C0.0634126 4.16666 -0.00144168 4.32905 2.43234e-05 4.49761C0.00149033 4.66617 0.0691594 4.82741 0.188457 4.9466C0.307754 5.06579 0.469135 5.1334 0.637841 5.13486C0.806546 5.13633 0.969079 5.07153 1.09043 4.95443L3.85268 2.19461L3.85268 9.64285C3.85268 9.81335 3.92047 9.97686 4.04114 10.0974C4.16181 10.218 4.32547 10.2857 4.49612 10.2857C4.66676 10.2857 4.83042 10.218 4.95109 10.0974C5.07176 9.97686 5.13955 9.81335 5.13955 9.64285L5.13955 2.19461L7.9018 4.95443C8.02246 5.07495 8.18609 5.14265 8.35671 5.14265C8.52732 5.14265 8.69095 5.07495 8.81161 4.95443Z" fill="#6ED29C"/>
</svg>
